<?xml version="1.0" encoding="iso-8859-1"?>
<!DOCTYPE svg PUBLIC "-//W3C//DTD SVG 1.1//EN" "http://www.w3.org/Graphics/SVG/1.1/DTD/svg11.dtd">
<svg xmlns="http://www.w3.org/2000/svg" width="60" height="60" viewBox="0 0 60 60">
    <g fill="none" fill-rule="nonzero" stroke="#FFF">
        <path fill="#FFF" d="M30 .5C13.733.5.5 13.733.5 30S13.733 59.5 30 59.5 59.5 46.267 59.5 30 46.267.5 30 .5zm0 58C14.285 58.5 1.5 45.715 1.5 30S14.285 1.5 30 1.5 58.5 14.285 58.5 30 45.715 58.5 30 58.5z"/>
        <path fill="#000" stroke-width="2" d="M29.29 43.69c-.18.19-.29.45-.29.71 0 .27.11.52.29.71.19.19.45.29.71.29.26 0 .52-.1.71-.29.18-.19.29-.44.29-.71 0-.26-.11-.52-.29-.7-.37-.38-1.05-.37-1.42-.01zM30 38.026a.5.5 0 0 0 .5-.5v-21.93a.5.5 0 1 0-1 0v21.93a.5.5 0 0 0 .5.5z"/>
    </g>
</svg>
