<?xml version="1.0" encoding="iso-8859-1"?>
<!-- Generator: Adobe Illustrator 19.0.0, SVG Export Plug-In . SVG Version: 6.00 Build 0)  -->
<svg version="1.1" id="Layer_1" xmlns="http://www.w3.org/2000/svg" xmlns:xlink="http://www.w3.org/1999/xlink" x="0px" y="0px"
	 viewBox="0 0 512 512" style="enable-background:new 0 0 512 512;" xml:space="preserve">
<path style="fill:#FF9811;" d="M111.195,450.736c-5.407,0-10.584-2.632-13.75-7.207c-3.883-5.635-3.949-13.075-0.153-18.77
	l29.359-44.039L21.04,356.11c-6.254-1.458-11.117-6.38-12.509-12.65c-1.403-6.271,0.925-12.786,5.983-16.757l42.216-33.183
	L7.758,239.213c-4.417-4.906-5.537-11.982-2.85-18.014c2.687-6.032,8.658-9.948,15.261-9.948h0.011l73.131,0.081l-3.6-53.562
	c-0.424-6.407,2.86-12.49,8.452-15.65c5.592-3.16,12.499-2.829,17.774,0.842l43.304,30.183L139.346,69.6
	c-1.219-6.309,1.294-12.76,6.462-16.582c5.167-3.818,12.074-4.351,17.742-1.349l47.482,25.074L240.728,9.92
	C243.414,3.889,249.397,0,256,0c6.603,0,12.586,3.889,15.272,9.92l29.696,66.822l47.482-25.074
	c5.656-3.007,12.575-2.475,17.742,1.349c5.167,3.824,7.68,10.274,6.462,16.584l-19.895,103.546l43.304-30.181
	c5.275-3.683,12.184-4.009,17.774-0.838c5.592,3.16,8.877,9.252,8.452,15.659l-3.6,53.546l73.131-0.081h0.011
	c6.603,0,12.575,3.916,15.261,9.948c2.687,6.032,1.566,13.091-2.85,17.997l-48.972,54.315l42.216,33.187
	c5.058,3.97,7.386,10.488,5.983,16.759c-1.392,6.271-6.254,11.194-12.509,12.651l-95.963,22.366l30.849,46.285
	c3.775,5.656,3.742,13.037-0.087,18.661c-3.818,5.624-10.693,8.371-17.318,6.945L256.13,417.729l-141.183,32.579
	C113.697,450.595,112.446,450.736,111.195,450.736z"/>
<path style="fill:#EE8700;" d="M255.973,417.729l152.389,32.639c6.624,1.425,13.538-1.322,17.357-6.945
	c3.83-5.624,3.881-13.005,0.107-18.661l-30.839-46.285l95.969-22.365c6.254-1.458,11.12-6.38,12.512-12.65
	c1.404-6.271-0.923-12.786-5.982-16.757l-42.216-33.183l48.972-54.307c4.417-4.906,5.537-11.982,2.85-18.014
	s-8.658-9.948-15.261-9.948h-0.011l-73.131,0.081l3.6-53.562c0.424-6.407-2.86-12.49-8.452-15.65
	c-5.592-3.171-12.499-2.84-17.774,0.842l-43.304,30.183l19.895-103.544c1.219-6.309-1.294-12.76-6.462-16.582
	c-5.167-3.823-12.086-4.356-17.742-1.349l-47.482,25.074L271.115,9.922C268.428,3.889,262.368,0,255.685,0v417.759L255.973,417.729z
	"/>
<path style="fill:#CC7400;" d="M345.077,290.372c-3.611-8.496-13.548-12.444-22.065-8.849l-50.619,21.436v-97.275
	c0-9.227-7.481-16.708-16.708-16.708s-16.708,7.481-16.708,16.708v97.274l-50.294-21.434c-9.325-3.94-20.176,1.214-22.728,11.504
	c-2.002,8.075,2.895,16.332,10.552,19.584l62.469,26.522v156.159c0,9.227,7.481,16.708,16.708,16.708s16.708-7.481,16.708-16.708
	V339.4l63.83-27.116C344.719,308.673,348.678,298.867,345.077,290.372z"/>
<g>
</g>
<g>
</g>
<g>
</g>
<g>
</g>
<g>
</g>
<g>
</g>
<g>
</g>
<g>
</g>
<g>
</g>
<g>
</g>
<g>
</g>
<g>
</g>
<g>
</g>
<g>
</g>
<g>
</g>
</svg>
